<?xml version="1.0" standalone="no"?>
<!DOCTYPE svg PUBLIC "-//W3C//DTD SVG 20010904//EN"
 "http://www.w3.org/TR/2001/REC-SVG-20010904/DTD/svg10.dtd">
<svg version="1.0" xmlns="http://www.w3.org/2000/svg"
 width="200.000000pt" height="200.000000pt" viewBox="0 0 200.000000 200.000000"
 preserveAspectRatio="xMidYMid meet">
<metadata>
Created by potrace 1.14, written by Peter Selinger 2001-2017
</metadata>
<g transform="translate(0.000000,200.000000) scale(0.100000,-0.100000)"
fill="#000000" stroke="none">
<path d="M2 1523 c0 -258 1 -475 4 -484 6 -23 487 -19 588 5 223 53 359 219
365 447 7 255 -140 436 -393 484 -56 11 -147 15 -321 15 l-243 0 0 -467z m573
169 c124 -85 114 -295 -18 -376 -44 -27 -57 -30 -152 -32 -58 -2 -106 0 -106
4 -1 4 -2 105 -3 224 l-1 217 60 3 c99 5 175 -9 220 -40z"/>
<path d="M1265 1978 c-3 -7 -81 -221 -175 -476 -93 -255 -170 -466 -170 -470
0 -4 71 -7 157 -7 l157 0 18 63 19 62 183 0 184 0 19 -62 18 -63 158 0 c86 0
157 2 157 5 0 3 -79 219 -175 480 -96 260 -175 475 -175 477 0 2 -83 3 -185 3
-140 0 -187 -3 -190 -12z m289 -563 c5 -19 0 -20 -99 -20 -58 0 -105 1 -105 3
0 2 23 77 52 165 l52 162 47 -145 c27 -80 50 -154 53 -165z"/>
<path d="M10 965 c0 -6 78 -222 174 -480 l173 -470 185 -3 185 -2 174 472 c96
260 174 477 174 483 0 6 -61 10 -163 10 l-162 0 -69 -215 c-38 -118 -85 -263
-104 -322 l-34 -107 -68 212 c-38 117 -85 262 -104 322 l-36 110 -162 0 c-107
0 -163 -3 -163 -10z"/>
<path d="M1130 493 l0 -483 365 0 c341 0 365 1 366 18 4 100 3 206 -3 215 -5
9 -70 12 -220 12 l-213 0 -1 60 -1 60 213 0 214 0 0 122 0 123 -214 0 -213 0
0 55 0 55 221 0 221 0 -2 107 c-1 60 -2 115 -2 123 -1 13 -48 15 -366 15
l-365 0 0 -482z"/>
</g>
</svg>
