<?xml version="1.0" encoding="UTF-8" standalone="no"?>
<!DOCTYPE svg PUBLIC "-//W3C//DTD SVG 1.1//EN" "http://www.w3.org/Graphics/SVG/1.1/DTD/svg11.dtd">
<svg width="100%" height="100%" viewBox="0 0 604 283" version="1.1" xmlns="http://www.w3.org/2000/svg" xmlns:xlink="http://www.w3.org/1999/xlink" xml:space="preserve" xmlns:serif="http://www.serif.com/" style="fill-rule:evenodd;clip-rule:evenodd;stroke-linecap:round;stroke-linejoin:round;stroke-miterlimit:1.5;">
    <g id="Artboard1" transform="matrix(1,0,0,1,-1.42109e-14,-26)">
        <rect x="0" y="26" width="604" height="282.446" style="fill:none;"/>
        <clipPath id="_clip1">
            <rect x="0" y="26" width="604" height="282.446"/>
        </clipPath>
        <g clip-path="url(#_clip1)">
            <g transform="matrix(0.665158,0,0,0.665158,-91.7644,-169.486)">
                <g transform="matrix(1.75002,0,0,1.75002,47.9918,-1097.41)">
                    <g transform="matrix(94.0414,0,0,94.0414,51.6912,858.739)">
                        <path d="M0.342,-0.641C0.337,-0.641 0.336,-0.636 0.334,-0.631C0.329,-0.61 0.307,-0.588 0.293,-0.579C0.291,-0.578 0.289,-0.573 0.289,-0.569C0.289,-0.561 0.288,-0.554 0.284,-0.541C0.228,-0.395 0.141,-0.178 0.111,-0.114C0.073,-0.031 0.062,-0.021 0.017,-0.011C0.007,-0.009 -0.003,-0.007 -0.003,-0.002C-0.003,0.003 0.004,0.005 0.015,0.005C0.04,0.005 0.06,-0 0.085,-0C0.12,-0 0.16,0.005 0.179,0.005C0.191,0.005 0.2,0.003 0.2,-0.002C0.2,-0.006 0.195,-0.01 0.185,-0.012C0.165,-0.017 0.151,-0.02 0.142,-0.03C0.131,-0.041 0.131,-0.061 0.141,-0.096C0.155,-0.144 0.183,-0.216 0.193,-0.24C0.196,-0.247 0.202,-0.257 0.207,-0.257C0.229,-0.257 0.349,-0.257 0.388,-0.259C0.392,-0.259 0.399,-0.254 0.402,-0.247C0.434,-0.164 0.467,-0.076 0.47,-0.057C0.472,-0.034 0.462,-0.018 0.425,-0.012C0.415,-0.011 0.406,-0.007 0.406,-0.002C0.406,0.002 0.413,0.005 0.424,0.005C0.449,0.005 0.485,-0 0.528,-0C0.58,-0 0.597,0.004 0.619,0.004C0.627,0.004 0.637,0.001 0.637,-0.004C0.637,-0.007 0.632,-0.011 0.62,-0.014C0.595,-0.019 0.585,-0.028 0.56,-0.085C0.501,-0.218 0.44,-0.374 0.375,-0.548C0.362,-0.582 0.352,-0.611 0.349,-0.63C0.348,-0.637 0.345,-0.641 0.342,-0.641ZM0.379,-0.291C0.37,-0.288 0.331,-0.288 0.296,-0.288C0.263,-0.288 0.238,-0.288 0.218,-0.289C0.214,-0.289 0.214,-0.294 0.215,-0.297C0.229,-0.337 0.271,-0.456 0.292,-0.506C0.295,-0.513 0.297,-0.516 0.3,-0.508C0.313,-0.477 0.343,-0.407 0.38,-0.302C0.382,-0.296 0.382,-0.292 0.379,-0.291Z" style="fill-rule:nonzero;"/>
                    </g>
                    <g transform="matrix(94.0414,0,0,94.0414,126.548,858.739)">
                        <path d="M0.015,-0.624C0.015,-0.62 0.022,-0.616 0.031,-0.614C0.05,-0.609 0.068,-0.608 0.085,-0.588C0.103,-0.568 0.108,-0.554 0.108,-0.494C0.108,-0.427 0.095,-0.209 0.089,-0.151C0.082,-0.087 0.077,-0.058 0.067,-0.043C0.056,-0.028 0.043,-0.018 0.013,-0.011C-0.001,-0.008 -0.005,-0.005 -0.005,-0.002C-0.005,0.003 0,0.006 0.013,0.006C0.024,0.006 0.052,-0 0.086,-0C0.122,-0 0.157,0.004 0.171,0.005C0.182,0.005 0.191,0.003 0.191,-0.002C0.191,-0.006 0.184,-0.01 0.174,-0.012C0.149,-0.018 0.127,-0.03 0.122,-0.053C0.118,-0.072 0.117,-0.091 0.117,-0.125C0.117,-0.173 0.128,-0.428 0.132,-0.482C0.133,-0.495 0.136,-0.495 0.14,-0.487C0.175,-0.416 0.311,-0.127 0.355,-0.03C0.363,-0.013 0.37,0.003 0.376,0.003C0.381,0.003 0.385,-0.003 0.391,-0.016C0.437,-0.12 0.556,-0.356 0.623,-0.491C0.625,-0.497 0.628,-0.496 0.628,-0.487C0.628,-0.44 0.627,-0.178 0.624,-0.124C0.621,-0.044 0.615,-0.025 0.573,-0.015C0.564,-0.014 0.554,-0.01 0.554,-0.006C0.554,0.002 0.565,0.003 0.574,0.003C0.589,0.003 0.621,-0 0.662,-0C0.692,-0 0.743,0.006 0.766,0.006C0.778,0.006 0.784,0.004 0.784,-0.001C0.784,-0.006 0.778,-0.009 0.769,-0.012C0.729,-0.023 0.718,-0.033 0.714,-0.091C0.712,-0.123 0.708,-0.222 0.708,-0.331C0.708,-0.381 0.709,-0.497 0.711,-0.532C0.714,-0.59 0.717,-0.602 0.776,-0.615C0.783,-0.617 0.791,-0.621 0.791,-0.624C0.791,-0.628 0.785,-0.631 0.775,-0.631C0.738,-0.631 0.691,-0.625 0.659,-0.625C0.654,-0.625 0.649,-0.614 0.649,-0.612C0.643,-0.592 0.63,-0.558 0.618,-0.531C0.595,-0.481 0.47,-0.234 0.418,-0.137C0.415,-0.131 0.413,-0.127 0.409,-0.134C0.354,-0.238 0.213,-0.52 0.172,-0.611C0.168,-0.62 0.163,-0.625 0.16,-0.625C0.122,-0.625 0.06,-0.629 0.033,-0.63C0.025,-0.63 0.015,-0.628 0.015,-0.624Z" style="fill-rule:nonzero;"/>
                    </g>
                    <g transform="matrix(94.0414,0,0,94.0414,214.477,858.739)">
                        <path d="M0.342,-0.641C0.337,-0.641 0.336,-0.636 0.334,-0.631C0.329,-0.61 0.307,-0.588 0.293,-0.579C0.291,-0.578 0.289,-0.573 0.289,-0.569C0.289,-0.561 0.288,-0.554 0.284,-0.541C0.228,-0.395 0.141,-0.178 0.111,-0.114C0.073,-0.031 0.062,-0.021 0.017,-0.011C0.007,-0.009 -0.003,-0.007 -0.003,-0.002C-0.003,0.003 0.004,0.005 0.015,0.005C0.04,0.005 0.06,-0 0.085,-0C0.12,-0 0.16,0.005 0.179,0.005C0.191,0.005 0.2,0.003 0.2,-0.002C0.2,-0.006 0.195,-0.01 0.185,-0.012C0.165,-0.017 0.151,-0.02 0.142,-0.03C0.131,-0.041 0.131,-0.061 0.141,-0.096C0.155,-0.144 0.183,-0.216 0.193,-0.24C0.196,-0.247 0.202,-0.257 0.207,-0.257C0.229,-0.257 0.349,-0.257 0.388,-0.259C0.392,-0.259 0.399,-0.254 0.402,-0.247C0.434,-0.164 0.467,-0.076 0.47,-0.057C0.472,-0.034 0.462,-0.018 0.425,-0.012C0.415,-0.011 0.406,-0.007 0.406,-0.002C0.406,0.002 0.413,0.005 0.424,0.005C0.449,0.005 0.485,-0 0.528,-0C0.58,-0 0.597,0.004 0.619,0.004C0.627,0.004 0.637,0.001 0.637,-0.004C0.637,-0.007 0.632,-0.011 0.62,-0.014C0.595,-0.019 0.585,-0.028 0.56,-0.085C0.501,-0.218 0.44,-0.374 0.375,-0.548C0.362,-0.582 0.352,-0.611 0.349,-0.63C0.348,-0.637 0.345,-0.641 0.342,-0.641ZM0.379,-0.291C0.37,-0.288 0.331,-0.288 0.296,-0.288C0.263,-0.288 0.238,-0.288 0.218,-0.289C0.214,-0.289 0.214,-0.294 0.215,-0.297C0.229,-0.337 0.271,-0.456 0.292,-0.506C0.295,-0.513 0.297,-0.516 0.3,-0.508C0.313,-0.477 0.343,-0.407 0.38,-0.302C0.382,-0.296 0.382,-0.292 0.379,-0.291Z" style="fill-rule:nonzero;"/>
                    </g>
                    <g transform="matrix(94.0414,0,0,94.0414,286.795,858.739)">
                        <path d="M0.033,-0.624C0.033,-0.62 0.036,-0.617 0.049,-0.614C0.09,-0.607 0.095,-0.601 0.098,-0.544C0.1,-0.509 0.1,-0.442 0.1,-0.306C0.1,-0.168 0.1,-0.103 0.096,-0.062C0.093,-0.031 0.086,-0.018 0.044,-0.011C0.035,-0.009 0.027,-0.007 0.027,-0.002C0.027,0.004 0.036,0.005 0.049,0.005C0.062,0.005 0.109,-0 0.139,-0C0.178,-0 0.247,0.003 0.297,0.005C0.346,0.007 0.421,0.007 0.431,0.007C0.44,0.007 0.45,0.004 0.454,-0.003C0.458,-0.01 0.478,-0.067 0.481,-0.074C0.486,-0.089 0.488,-0.104 0.483,-0.104C0.479,-0.104 0.474,-0.101 0.466,-0.088C0.446,-0.052 0.422,-0.025 0.401,-0.02C0.384,-0.016 0.358,-0.015 0.317,-0.015C0.239,-0.016 0.211,-0.026 0.2,-0.041C0.192,-0.052 0.19,-0.079 0.187,-0.119C0.186,-0.138 0.185,-0.235 0.185,-0.329C0.185,-0.42 0.186,-0.515 0.187,-0.532C0.19,-0.6 0.193,-0.606 0.232,-0.614C0.239,-0.615 0.247,-0.619 0.247,-0.623C0.247,-0.627 0.242,-0.629 0.23,-0.629C0.204,-0.629 0.178,-0.625 0.143,-0.625C0.115,-0.625 0.081,-0.63 0.05,-0.63C0.04,-0.63 0.033,-0.627 0.033,-0.624Z" style="fill-rule:nonzero;"/>
                    </g>
                    <g transform="matrix(94.0414,0,0,94.0414,345.383,858.739)">
                        <path d="M0.342,-0.641C0.337,-0.641 0.336,-0.636 0.334,-0.631C0.329,-0.61 0.307,-0.588 0.293,-0.579C0.291,-0.578 0.289,-0.573 0.289,-0.569C0.289,-0.561 0.288,-0.554 0.284,-0.541C0.228,-0.395 0.141,-0.178 0.111,-0.114C0.073,-0.031 0.062,-0.021 0.017,-0.011C0.007,-0.009 -0.003,-0.007 -0.003,-0.002C-0.003,0.003 0.004,0.005 0.015,0.005C0.04,0.005 0.06,-0 0.085,-0C0.12,-0 0.16,0.005 0.179,0.005C0.191,0.005 0.2,0.003 0.2,-0.002C0.2,-0.006 0.195,-0.01 0.185,-0.012C0.165,-0.017 0.151,-0.02 0.142,-0.03C0.131,-0.041 0.131,-0.061 0.141,-0.096C0.155,-0.144 0.183,-0.216 0.193,-0.24C0.196,-0.247 0.202,-0.257 0.207,-0.257C0.229,-0.257 0.349,-0.257 0.388,-0.259C0.392,-0.259 0.399,-0.254 0.402,-0.247C0.434,-0.164 0.467,-0.076 0.47,-0.057C0.472,-0.034 0.462,-0.018 0.425,-0.012C0.415,-0.011 0.406,-0.007 0.406,-0.002C0.406,0.002 0.413,0.005 0.424,0.005C0.449,0.005 0.485,-0 0.528,-0C0.58,-0 0.597,0.004 0.619,0.004C0.627,0.004 0.637,0.001 0.637,-0.004C0.637,-0.007 0.632,-0.011 0.62,-0.014C0.595,-0.019 0.585,-0.028 0.56,-0.085C0.501,-0.218 0.44,-0.374 0.375,-0.548C0.362,-0.582 0.352,-0.611 0.349,-0.63C0.348,-0.637 0.345,-0.641 0.342,-0.641ZM0.379,-0.291C0.37,-0.288 0.331,-0.288 0.296,-0.288C0.263,-0.288 0.238,-0.288 0.218,-0.289C0.214,-0.289 0.214,-0.294 0.215,-0.297C0.229,-0.337 0.271,-0.456 0.292,-0.506C0.295,-0.513 0.297,-0.516 0.3,-0.508C0.313,-0.477 0.343,-0.407 0.38,-0.302C0.382,-0.296 0.382,-0.292 0.379,-0.291Z" style="fill-rule:nonzero;"/>
                    </g>
                    <g transform="matrix(94.0414,0,0,94.0414,417.7,858.739)">
                        <path d="M0.262,-0.631C0.198,-0.631 0.178,-0.626 0.131,-0.626C0.097,-0.626 0.065,-0.629 0.051,-0.629C0.04,-0.629 0.033,-0.627 0.033,-0.623C0.033,-0.618 0.042,-0.616 0.051,-0.614C0.093,-0.607 0.093,-0.592 0.095,-0.563C0.097,-0.528 0.101,-0.46 0.101,-0.321C0.101,-0.208 0.099,-0.125 0.096,-0.068C0.093,-0.028 0.083,-0.018 0.05,-0.012C0.037,-0.009 0.031,-0.006 0.031,-0.002C0.031,0.003 0.038,0.005 0.049,0.005C0.067,0.005 0.107,-0 0.143,-0C0.181,-0 0.218,0.005 0.234,0.005C0.245,0.005 0.253,0.002 0.253,-0.002C0.253,-0.006 0.248,-0.009 0.238,-0.012C0.203,-0.018 0.195,-0.03 0.192,-0.04C0.188,-0.051 0.184,-0.082 0.184,-0.139C0.183,-0.175 0.183,-0.284 0.185,-0.298C0.185,-0.303 0.189,-0.308 0.193,-0.308C0.212,-0.309 0.222,-0.308 0.23,-0.306C0.243,-0.304 0.254,-0.295 0.269,-0.275C0.293,-0.236 0.359,-0.123 0.4,-0.069C0.44,-0.014 0.487,0.01 0.551,0.01C0.572,0.01 0.592,0.009 0.6,0.006C0.607,0.003 0.611,-0 0.611,-0.003C0.611,-0.006 0.605,-0.009 0.599,-0.009C0.579,-0.01 0.554,-0.016 0.525,-0.046C0.504,-0.068 0.483,-0.094 0.452,-0.14C0.418,-0.192 0.366,-0.279 0.347,-0.316C0.343,-0.326 0.343,-0.332 0.347,-0.334C0.361,-0.339 0.388,-0.351 0.402,-0.363C0.425,-0.38 0.459,-0.41 0.459,-0.474C0.459,-0.522 0.439,-0.564 0.397,-0.595C0.364,-0.618 0.322,-0.631 0.262,-0.631ZM0.222,-0.614C0.267,-0.614 0.302,-0.603 0.331,-0.573C0.358,-0.546 0.37,-0.508 0.37,-0.459C0.37,-0.404 0.344,-0.366 0.316,-0.347C0.294,-0.332 0.237,-0.325 0.213,-0.324C0.207,-0.324 0.196,-0.324 0.191,-0.326C0.186,-0.326 0.183,-0.331 0.183,-0.343C0.183,-0.36 0.184,-0.568 0.185,-0.585C0.186,-0.603 0.189,-0.605 0.192,-0.607C0.197,-0.61 0.21,-0.614 0.222,-0.614Z" style="fill-rule:nonzero;"/>
                    </g>
                    <g transform="matrix(94.0414,0,0,94.0414,484.094,858.739)">
                        <path d="M0.342,-0.641C0.337,-0.641 0.336,-0.636 0.334,-0.631C0.329,-0.61 0.307,-0.588 0.293,-0.579C0.291,-0.578 0.289,-0.573 0.289,-0.569C0.289,-0.561 0.288,-0.554 0.284,-0.541C0.228,-0.395 0.141,-0.178 0.111,-0.114C0.073,-0.031 0.062,-0.021 0.017,-0.011C0.007,-0.009 -0.003,-0.007 -0.003,-0.002C-0.003,0.003 0.004,0.005 0.015,0.005C0.04,0.005 0.06,-0 0.085,-0C0.12,-0 0.16,0.005 0.179,0.005C0.191,0.005 0.2,0.003 0.2,-0.002C0.2,-0.006 0.195,-0.01 0.185,-0.012C0.165,-0.017 0.151,-0.02 0.142,-0.03C0.131,-0.041 0.131,-0.061 0.141,-0.096C0.155,-0.144 0.183,-0.216 0.193,-0.24C0.196,-0.247 0.202,-0.257 0.207,-0.257C0.229,-0.257 0.349,-0.257 0.388,-0.259C0.392,-0.259 0.399,-0.254 0.402,-0.247C0.434,-0.164 0.467,-0.076 0.47,-0.057C0.472,-0.034 0.462,-0.018 0.425,-0.012C0.415,-0.011 0.406,-0.007 0.406,-0.002C0.406,0.002 0.413,0.005 0.424,0.005C0.449,0.005 0.485,-0 0.528,-0C0.58,-0 0.597,0.004 0.619,0.004C0.627,0.004 0.637,0.001 0.637,-0.004C0.637,-0.007 0.632,-0.011 0.62,-0.014C0.595,-0.019 0.585,-0.028 0.56,-0.085C0.501,-0.218 0.44,-0.374 0.375,-0.548C0.362,-0.582 0.352,-0.611 0.349,-0.63C0.348,-0.637 0.345,-0.641 0.342,-0.641ZM0.379,-0.291C0.37,-0.288 0.331,-0.288 0.296,-0.288C0.263,-0.288 0.238,-0.288 0.218,-0.289C0.214,-0.289 0.214,-0.294 0.215,-0.297C0.229,-0.337 0.271,-0.456 0.292,-0.506C0.295,-0.513 0.297,-0.516 0.3,-0.508C0.313,-0.477 0.343,-0.407 0.38,-0.302C0.382,-0.296 0.382,-0.292 0.379,-0.291Z" style="fill-rule:nonzero;"/>
                    </g>
                    <g transform="matrix(94.0414,0,0,94.0414,258.865,942.264)">
                        <path d="M0.411,-0.643C0.29,-0.643 0.225,-0.605 0.18,-0.572C0.087,-0.5 0.045,-0.413 0.045,-0.309C0.045,-0.215 0.082,-0.132 0.153,-0.071C0.213,-0.018 0.299,0.018 0.405,0.018C0.454,0.018 0.512,-0 0.557,-0.019C0.578,-0.028 0.595,-0.036 0.607,-0.042C0.615,-0.046 0.614,-0.053 0.614,-0.066C0.614,-0.079 0.609,-0.137 0.609,-0.191C0.609,-0.243 0.615,-0.252 0.631,-0.256C0.643,-0.259 0.653,-0.262 0.653,-0.268C0.653,-0.272 0.646,-0.274 0.635,-0.274C0.628,-0.274 0.598,-0.272 0.568,-0.272C0.524,-0.272 0.498,-0.275 0.473,-0.275C0.454,-0.276 0.448,-0.273 0.448,-0.268C0.448,-0.263 0.457,-0.261 0.467,-0.259C0.508,-0.253 0.52,-0.242 0.523,-0.208C0.526,-0.178 0.524,-0.112 0.522,-0.093C0.521,-0.067 0.518,-0.051 0.508,-0.039C0.483,-0.014 0.439,0.001 0.403,0.001C0.352,0.001 0.301,-0.019 0.256,-0.056C0.204,-0.101 0.144,-0.19 0.144,-0.308C0.144,-0.413 0.178,-0.498 0.226,-0.55C0.271,-0.599 0.337,-0.627 0.404,-0.627C0.509,-0.627 0.569,-0.579 0.596,-0.507C0.601,-0.493 0.604,-0.49 0.609,-0.49C0.612,-0.49 0.616,-0.496 0.614,-0.509C0.612,-0.522 0.605,-0.569 0.604,-0.58C0.603,-0.589 0.6,-0.6 0.594,-0.602C0.582,-0.607 0.552,-0.618 0.527,-0.625C0.5,-0.631 0.46,-0.643 0.411,-0.643Z" style="fill-rule:nonzero;"/>
                    </g>
                    <g transform="matrix(94.0414,0,0,94.0414,334.098,942.264)">
                        <path d="M0.342,-0.641C0.337,-0.641 0.336,-0.636 0.334,-0.631C0.329,-0.61 0.307,-0.588 0.293,-0.579C0.291,-0.578 0.289,-0.573 0.289,-0.569C0.289,-0.561 0.288,-0.554 0.284,-0.541C0.228,-0.395 0.141,-0.178 0.111,-0.114C0.073,-0.031 0.062,-0.021 0.017,-0.011C0.007,-0.009 -0.003,-0.007 -0.003,-0.002C-0.003,0.003 0.004,0.005 0.015,0.005C0.04,0.005 0.06,-0 0.085,-0C0.12,-0 0.16,0.005 0.179,0.005C0.191,0.005 0.2,0.003 0.2,-0.002C0.2,-0.006 0.195,-0.01 0.185,-0.012C0.165,-0.017 0.151,-0.02 0.142,-0.03C0.131,-0.041 0.131,-0.061 0.141,-0.096C0.155,-0.144 0.183,-0.216 0.193,-0.24C0.196,-0.247 0.202,-0.257 0.207,-0.257C0.229,-0.257 0.349,-0.257 0.388,-0.259C0.392,-0.259 0.399,-0.254 0.402,-0.247C0.434,-0.164 0.467,-0.076 0.47,-0.057C0.472,-0.034 0.462,-0.018 0.425,-0.012C0.415,-0.011 0.406,-0.007 0.406,-0.002C0.406,0.002 0.413,0.005 0.424,0.005C0.449,0.005 0.485,-0 0.528,-0C0.58,-0 0.597,0.004 0.619,0.004C0.627,0.004 0.637,0.001 0.637,-0.004C0.637,-0.007 0.632,-0.011 0.62,-0.014C0.595,-0.019 0.585,-0.028 0.56,-0.085C0.501,-0.218 0.44,-0.374 0.375,-0.548C0.362,-0.582 0.352,-0.611 0.349,-0.63C0.348,-0.637 0.345,-0.641 0.342,-0.641ZM0.379,-0.291C0.37,-0.288 0.331,-0.288 0.296,-0.288C0.263,-0.288 0.238,-0.288 0.218,-0.289C0.214,-0.289 0.214,-0.294 0.215,-0.297C0.229,-0.337 0.271,-0.456 0.292,-0.506C0.295,-0.513 0.297,-0.516 0.3,-0.508C0.313,-0.477 0.343,-0.407 0.38,-0.302C0.382,-0.296 0.382,-0.292 0.379,-0.291Z" style="fill-rule:nonzero;"/>
                    </g>
                    <g transform="matrix(94.0414,0,0,94.0414,408.955,942.264)">
                        <path d="M0.015,-0.624C0.015,-0.62 0.022,-0.616 0.031,-0.614C0.05,-0.609 0.068,-0.608 0.085,-0.588C0.103,-0.568 0.108,-0.554 0.108,-0.494C0.108,-0.427 0.095,-0.209 0.089,-0.151C0.082,-0.087 0.077,-0.058 0.067,-0.043C0.056,-0.028 0.043,-0.018 0.013,-0.011C-0.001,-0.008 -0.005,-0.005 -0.005,-0.002C-0.005,0.003 0,0.006 0.013,0.006C0.024,0.006 0.052,-0 0.086,-0C0.122,-0 0.157,0.004 0.171,0.005C0.182,0.005 0.191,0.003 0.191,-0.002C0.191,-0.006 0.184,-0.01 0.174,-0.012C0.149,-0.018 0.127,-0.03 0.122,-0.053C0.118,-0.072 0.117,-0.091 0.117,-0.125C0.117,-0.173 0.128,-0.428 0.132,-0.482C0.133,-0.495 0.136,-0.495 0.14,-0.487C0.175,-0.416 0.311,-0.127 0.355,-0.03C0.363,-0.013 0.37,0.003 0.376,0.003C0.381,0.003 0.385,-0.003 0.391,-0.016C0.437,-0.12 0.556,-0.356 0.623,-0.491C0.625,-0.497 0.628,-0.496 0.628,-0.487C0.628,-0.44 0.627,-0.178 0.624,-0.124C0.621,-0.044 0.615,-0.025 0.573,-0.015C0.564,-0.014 0.554,-0.01 0.554,-0.006C0.554,0.002 0.565,0.003 0.574,0.003C0.589,0.003 0.621,-0 0.662,-0C0.692,-0 0.743,0.006 0.766,0.006C0.778,0.006 0.784,0.004 0.784,-0.001C0.784,-0.006 0.778,-0.009 0.769,-0.012C0.729,-0.023 0.718,-0.033 0.714,-0.091C0.712,-0.123 0.708,-0.222 0.708,-0.331C0.708,-0.381 0.709,-0.497 0.711,-0.532C0.714,-0.59 0.717,-0.602 0.776,-0.615C0.783,-0.617 0.791,-0.621 0.791,-0.624C0.791,-0.628 0.785,-0.631 0.775,-0.631C0.738,-0.631 0.691,-0.625 0.659,-0.625C0.654,-0.625 0.649,-0.614 0.649,-0.612C0.643,-0.592 0.63,-0.558 0.618,-0.531C0.595,-0.481 0.47,-0.234 0.418,-0.137C0.415,-0.131 0.413,-0.127 0.409,-0.134C0.354,-0.238 0.213,-0.52 0.172,-0.611C0.168,-0.62 0.163,-0.625 0.16,-0.625C0.122,-0.625 0.06,-0.629 0.033,-0.63C0.025,-0.63 0.015,-0.628 0.015,-0.624Z" style="fill-rule:nonzero;"/>
                    </g>
                    <g transform="matrix(94.0414,0,0,94.0414,496.601,942.264)">
                        <path d="M0.038,-0.623C0.038,-0.619 0.043,-0.615 0.053,-0.613C0.089,-0.606 0.101,-0.594 0.101,-0.537C0.101,-0.348 0.101,-0.232 0.096,-0.073C0.095,-0.029 0.075,-0.017 0.043,-0.011C0.032,-0.009 0.025,-0.007 0.025,-0.002C0.025,0.002 0.031,0.005 0.043,0.005C0.054,0.005 0.113,-0 0.147,-0C0.228,-0 0.341,0.004 0.447,0.004C0.454,0.004 0.46,-0.001 0.463,-0.009C0.469,-0.02 0.481,-0.065 0.486,-0.085C0.49,-0.097 0.489,-0.104 0.485,-0.104C0.481,-0.104 0.476,-0.099 0.467,-0.087C0.457,-0.074 0.441,-0.049 0.43,-0.039C0.409,-0.019 0.388,-0.018 0.312,-0.018C0.247,-0.018 0.23,-0.02 0.215,-0.027C0.197,-0.035 0.189,-0.06 0.189,-0.071C0.189,-0.09 0.186,-0.233 0.186,-0.284C0.186,-0.298 0.187,-0.301 0.193,-0.301C0.323,-0.301 0.349,-0.3 0.372,-0.295C0.388,-0.291 0.395,-0.272 0.399,-0.261C0.405,-0.246 0.407,-0.242 0.411,-0.242C0.413,-0.242 0.419,-0.247 0.417,-0.262C0.416,-0.268 0.413,-0.301 0.415,-0.318C0.416,-0.334 0.42,-0.367 0.42,-0.373C0.42,-0.378 0.419,-0.384 0.415,-0.384C0.411,-0.384 0.408,-0.379 0.405,-0.373C0.395,-0.349 0.387,-0.338 0.379,-0.334C0.37,-0.328 0.356,-0.326 0.313,-0.326L0.192,-0.326C0.189,-0.326 0.186,-0.33 0.186,-0.341L0.186,-0.567C0.186,-0.604 0.19,-0.606 0.198,-0.607C0.236,-0.608 0.357,-0.608 0.378,-0.604C0.396,-0.601 0.416,-0.582 0.433,-0.541C0.438,-0.53 0.441,-0.527 0.445,-0.527C0.448,-0.527 0.45,-0.536 0.449,-0.542C0.445,-0.561 0.442,-0.603 0.441,-0.613C0.439,-0.623 0.435,-0.629 0.43,-0.629C0.421,-0.629 0.407,-0.627 0.369,-0.627C0.329,-0.627 0.198,-0.625 0.141,-0.625C0.114,-0.625 0.077,-0.629 0.053,-0.629C0.044,-0.629 0.038,-0.626 0.038,-0.623Z" style="fill-rule:nonzero;"/>
                    </g>
                    <g transform="matrix(94.0414,0,0,94.0414,168.115,1025.79)">
                        <path d="M0.259,-0.643C0.201,-0.643 0.157,-0.624 0.129,-0.602C0.09,-0.572 0.065,-0.527 0.065,-0.474C0.065,-0.387 0.123,-0.333 0.205,-0.278C0.276,-0.231 0.323,-0.192 0.323,-0.127C0.323,-0.061 0.271,-0 0.192,-0C0.129,-0 0.064,-0.036 0.046,-0.111C0.042,-0.125 0.039,-0.131 0.034,-0.131C0.03,-0.131 0.028,-0.124 0.029,-0.112C0.03,-0.088 0.038,-0.051 0.039,-0.035C0.042,-0.023 0.046,-0.016 0.056,-0.01C0.087,0.006 0.147,0.018 0.194,0.018C0.3,0.018 0.407,-0.048 0.407,-0.162C0.407,-0.251 0.347,-0.296 0.308,-0.324C0.276,-0.347 0.244,-0.369 0.207,-0.394C0.168,-0.421 0.137,-0.456 0.137,-0.507C0.137,-0.59 0.206,-0.627 0.254,-0.627C0.279,-0.627 0.313,-0.618 0.335,-0.601C0.355,-0.587 0.365,-0.567 0.373,-0.541C0.376,-0.53 0.379,-0.525 0.382,-0.525C0.386,-0.525 0.39,-0.533 0.388,-0.545C0.386,-0.556 0.383,-0.586 0.383,-0.613C0.383,-0.616 0.381,-0.623 0.376,-0.624C0.359,-0.63 0.308,-0.643 0.259,-0.643Z" style="fill-rule:nonzero;"/>
                    </g>
                    <g transform="matrix(94.0414,0,0,94.0414,221.53,1025.79)">
                        <path d="M0.15,-0.003C0.15,0.001 0.155,0.006 0.168,0.006C0.184,0.006 0.215,-0 0.27,-0C0.312,-0 0.347,0.006 0.37,0.006C0.383,0.006 0.389,0.005 0.389,-0.001C0.389,-0.006 0.384,-0.008 0.372,-0.011C0.337,-0.021 0.328,-0.028 0.324,-0.061C0.321,-0.091 0.318,-0.208 0.318,-0.265C0.318,-0.308 0.32,-0.544 0.32,-0.582C0.32,-0.59 0.322,-0.597 0.327,-0.599C0.342,-0.601 0.39,-0.601 0.423,-0.601C0.488,-0.601 0.503,-0.596 0.512,-0.588C0.52,-0.579 0.528,-0.557 0.531,-0.54C0.532,-0.534 0.535,-0.525 0.539,-0.525C0.542,-0.525 0.546,-0.532 0.546,-0.547C0.546,-0.581 0.546,-0.614 0.549,-0.626C0.55,-0.634 0.549,-0.636 0.548,-0.639C0.547,-0.641 0.543,-0.639 0.539,-0.637C0.524,-0.629 0.511,-0.628 0.489,-0.627C0.462,-0.625 0.361,-0.625 0.284,-0.625C0.182,-0.625 0.079,-0.626 0.064,-0.627C0.05,-0.628 0.037,-0.632 0.033,-0.637C0.03,-0.641 0.027,-0.643 0.024,-0.642C0.02,-0.64 0.019,-0.635 0.019,-0.626C0.018,-0.6 0.01,-0.57 0.005,-0.54C0.004,-0.533 0.005,-0.525 0.009,-0.525C0.013,-0.525 0.018,-0.53 0.023,-0.542C0.037,-0.581 0.05,-0.594 0.069,-0.597C0.088,-0.6 0.113,-0.602 0.151,-0.602C0.196,-0.602 0.219,-0.6 0.226,-0.599C0.229,-0.599 0.231,-0.596 0.232,-0.587C0.234,-0.574 0.234,-0.179 0.228,-0.081C0.225,-0.034 0.219,-0.019 0.17,-0.013C0.159,-0.011 0.15,-0.008 0.15,-0.003Z" style="fill-rule:nonzero;"/>
                    </g>
                    <g transform="matrix(94.0414,0,0,94.0414,287.077,1025.79)">
                        <path d="M0.025,-0.624C0.025,-0.62 0.031,-0.617 0.038,-0.615C0.078,-0.604 0.08,-0.597 0.083,-0.548C0.087,-0.489 0.085,-0.341 0.088,-0.262C0.091,-0.135 0.113,-0.077 0.174,-0.029C0.214,0.002 0.278,0.017 0.332,0.017C0.381,0.017 0.457,0.007 0.509,-0.048C0.566,-0.108 0.577,-0.197 0.582,-0.295C0.586,-0.353 0.587,-0.482 0.591,-0.541C0.594,-0.585 0.597,-0.605 0.637,-0.612C0.653,-0.615 0.658,-0.618 0.658,-0.623C0.658,-0.626 0.652,-0.628 0.64,-0.628C0.615,-0.628 0.589,-0.625 0.567,-0.625C0.535,-0.625 0.519,-0.628 0.496,-0.628C0.485,-0.628 0.479,-0.626 0.479,-0.621C0.479,-0.618 0.487,-0.613 0.496,-0.612C0.504,-0.611 0.514,-0.608 0.522,-0.606C0.549,-0.595 0.558,-0.583 0.558,-0.394C0.558,-0.364 0.557,-0.317 0.556,-0.28C0.549,-0.082 0.475,-0.025 0.366,-0.025C0.321,-0.025 0.265,-0.038 0.227,-0.078C0.194,-0.113 0.175,-0.17 0.174,-0.247C0.173,-0.305 0.173,-0.433 0.175,-0.527C0.175,-0.574 0.174,-0.604 0.222,-0.612C0.231,-0.614 0.238,-0.617 0.238,-0.622C0.238,-0.625 0.234,-0.628 0.222,-0.628C0.198,-0.628 0.17,-0.625 0.137,-0.625C0.099,-0.625 0.069,-0.629 0.043,-0.629C0.034,-0.629 0.025,-0.629 0.025,-0.624Z" style="fill-rule:nonzero;"/>
                    </g>
                    <g transform="matrix(94.0414,0,0,94.0414,361.088,1025.79)">
                        <path d="M0.036,-0.62C0.036,-0.615 0.043,-0.612 0.052,-0.611C0.089,-0.604 0.094,-0.594 0.097,-0.559C0.099,-0.528 0.101,-0.448 0.101,-0.269C0.101,-0.17 0.1,-0.089 0.097,-0.065C0.094,-0.026 0.085,-0.018 0.049,-0.012C0.037,-0.01 0.032,-0.007 0.032,-0.004C0.032,0.002 0.041,0.004 0.052,0.004C0.062,0.004 0.094,0.002 0.121,0.002C0.151,0.002 0.179,0.005 0.209,0.007C0.237,0.009 0.262,0.011 0.286,0.011C0.311,0.011 0.352,0.009 0.379,0.003C0.506,-0.028 0.644,-0.117 0.644,-0.319C0.644,-0.448 0.576,-0.533 0.497,-0.583C0.428,-0.625 0.356,-0.637 0.275,-0.637C0.252,-0.637 0.209,-0.633 0.181,-0.63C0.14,-0.626 0.097,-0.626 0.054,-0.626C0.043,-0.626 0.036,-0.624 0.036,-0.62ZM0.258,-0.619C0.341,-0.619 0.399,-0.592 0.455,-0.541C0.518,-0.482 0.547,-0.394 0.547,-0.303C0.547,-0.14 0.467,-0.062 0.408,-0.03C0.379,-0.013 0.343,-0.005 0.303,-0.005C0.27,-0.005 0.24,-0.016 0.226,-0.028C0.201,-0.046 0.195,-0.07 0.191,-0.118C0.188,-0.167 0.185,-0.231 0.185,-0.333C0.185,-0.517 0.186,-0.549 0.188,-0.582C0.188,-0.601 0.194,-0.608 0.199,-0.61C0.209,-0.614 0.235,-0.619 0.258,-0.619Z" style="fill-rule:nonzero;"/>
                    </g>
                    <g transform="matrix(94.0414,0,0,94.0414,436.979,1025.79)">
                        <path d="M0.036,-0.624C0.036,-0.621 0.04,-0.618 0.048,-0.615C0.08,-0.608 0.091,-0.603 0.095,-0.571C0.097,-0.556 0.1,-0.519 0.1,-0.47C0.1,-0.426 0.101,-0.154 0.099,-0.097C0.097,-0.036 0.091,-0.02 0.054,-0.013C0.036,-0.008 0.032,-0.005 0.032,-0.002C0.032,0.003 0.039,0.005 0.05,0.005C0.069,0.005 0.097,-0 0.151,-0C0.183,-0 0.206,0.003 0.225,0.003C0.237,0.003 0.245,0.002 0.245,-0.004C0.245,-0.008 0.241,-0.011 0.228,-0.014C0.199,-0.022 0.192,-0.028 0.19,-0.067C0.188,-0.098 0.186,-0.18 0.186,-0.328C0.186,-0.388 0.185,-0.503 0.188,-0.552C0.19,-0.593 0.191,-0.608 0.231,-0.614C0.242,-0.616 0.247,-0.62 0.247,-0.624C0.247,-0.627 0.241,-0.629 0.232,-0.629C0.209,-0.629 0.177,-0.625 0.141,-0.625C0.111,-0.625 0.088,-0.629 0.051,-0.629C0.042,-0.629 0.036,-0.627 0.036,-0.624Z" style="fill-rule:nonzero;"/>
                    </g>
                    <g transform="matrix(94.0414,0,0,94.0414,475.16,1025.79)">
                        <path d="M0.37,-0.643C0.305,-0.643 0.227,-0.62 0.175,-0.58C0.079,-0.507 0.045,-0.418 0.045,-0.318C0.045,-0.135 0.193,0.018 0.375,0.018C0.423,0.018 0.469,0.006 0.51,-0.012C0.587,-0.046 0.696,-0.144 0.696,-0.305C0.696,-0.492 0.547,-0.643 0.37,-0.643ZM0.354,-0.627C0.433,-0.627 0.485,-0.587 0.52,-0.544C0.574,-0.475 0.6,-0.394 0.6,-0.305C0.6,-0.162 0.54,-0.079 0.498,-0.043C0.465,-0.012 0.427,-0.001 0.392,-0.001C0.335,-0.001 0.273,-0.026 0.219,-0.096C0.171,-0.156 0.141,-0.244 0.141,-0.324C0.141,-0.408 0.162,-0.496 0.209,-0.553C0.237,-0.586 0.296,-0.627 0.354,-0.627Z" style="fill-rule:nonzero;"/>
                    </g>
                </g>
                <g transform="matrix(1,0,0,1.1402,940,-92.8099)">
                    <path d="M100,344.429L100,695.325" style="fill:none;stroke:black;stroke-width:11.22px;"/>
                </g>
            </g>
        </g>
    </g>
</svg>
